<svg xmlns="http://www.w3.org/2000/svg" xmlns:xlink="http://www.w3.org/1999/xlink" width="150" zoomAndPan="magnify" viewBox="0 0 112.5 37.5" height="50" preserveAspectRatio="xMidYMid meet" version="1.0"><defs><g/><clipPath id="id1"><path d="M 56.25 22.847656 L 64.425781 22.847656 L 64.425781 31 L 56.25 31 Z M 56.25 22.847656 " clip-rule="nonzero"/></clipPath></defs><g fill="#ff00ff" fill-opacity="1"><g transform="translate(20.161077, 16.002599)"><g><path d="M 12.332031 -3.4375 L 14.351562 -5.457031 L 14.351562 -12.128906 L 12.332031 -14.148438 L 0.101562 -14.148438 L 0.101562 -10.914062 L 11.117188 -10.914062 L 11.117188 -6.671875 L 4.851562 -6.671875 L 4.851562 -9.90625 L 1.617188 -9.90625 L 1.617188 0 L 4.851562 0 L 4.851562 -3.4375 L 8.226562 -3.4375 C 9.238281 -2.285156 10.226562 -1.132812 11.257812 0 L 15.363281 0 C 14.332031 -1.132812 13.339844 -2.285156 12.332031 -3.4375 Z M 12.332031 -3.4375 "/></g></g></g><g fill="#ff00ff" fill-opacity="1"><g transform="translate(37.887345, 16.002599)"><g><path d="M 15.261719 0 L 15.261719 -12.128906 L 13.238281 -14.148438 L 1.515625 -14.148438 L 1.515625 -10.914062 L 12.027344 -10.914062 L 12.027344 -8.691406 L 3.03125 -8.691406 L 1.011719 -6.671875 L 1.011719 -2.019531 L 3.03125 0 L 11.015625 0 L 11.015625 -3.234375 L 4.246094 -3.234375 L 4.246094 -5.457031 L 12.027344 -5.457031 L 12.027344 -2.019531 L 14.046875 0 Z M 15.261719 0 "/></g></g></g><g fill="#ff00ff" fill-opacity="1"><g transform="translate(56.321017, 16.002599)"><g><path d="M 12.332031 -3.4375 L 14.351562 -5.457031 L 14.351562 -12.128906 L 12.332031 -14.148438 L 0.101562 -14.148438 L 0.101562 -10.914062 L 11.117188 -10.914062 L 11.117188 -6.671875 L 4.851562 -6.671875 L 4.851562 -9.90625 L 1.617188 -9.90625 L 1.617188 0 L 4.851562 0 L 4.851562 -3.4375 L 8.226562 -3.4375 C 9.238281 -2.285156 10.226562 -1.132812 11.257812 0 L 15.363281 0 C 14.332031 -1.132812 13.339844 -2.285156 12.332031 -3.4375 Z M 12.332031 -3.4375 "/></g></g></g><g fill="#ff00ff" fill-opacity="1"><g transform="translate(74.047285, 16.002599)"><g><path d="M 14.757812 0 L 14.757812 -3.234375 L 4.246094 -3.234375 L 4.246094 -10.914062 L 12.027344 -10.914062 L 12.027344 -8.488281 L 5.253906 -8.488281 L 5.253906 -5.253906 L 13.238281 -5.253906 L 15.261719 -7.277344 L 15.261719 -12.128906 L 13.238281 -14.148438 L 3.03125 -14.148438 L 1.011719 -12.128906 L 1.011719 -2.019531 L 3.03125 0 Z M 14.757812 0 "/></g></g></g><g fill="#00ffff" fill-opacity="1"><g transform="translate(22.182721, 16.002599)"><g><path d="M 12.332031 -3.4375 L 14.351562 -5.457031 L 14.351562 -12.128906 L 12.332031 -14.148438 L 0.101562 -14.148438 L 0.101562 -10.914062 L 11.117188 -10.914062 L 11.117188 -6.671875 L 4.851562 -6.671875 L 4.851562 -9.90625 L 1.617188 -9.90625 L 1.617188 0 L 4.851562 0 L 4.851562 -3.4375 L 8.226562 -3.4375 C 9.238281 -2.285156 10.226562 -1.132812 11.257812 0 L 15.363281 0 C 14.332031 -1.132812 13.339844 -2.285156 12.332031 -3.4375 Z M 12.332031 -3.4375 "/></g></g></g><g fill="#00ffff" fill-opacity="1"><g transform="translate(39.908989, 16.002599)"><g><path d="M 15.261719 0 L 15.261719 -12.128906 L 13.238281 -14.148438 L 1.515625 -14.148438 L 1.515625 -10.914062 L 12.027344 -10.914062 L 12.027344 -8.691406 L 3.03125 -8.691406 L 1.011719 -6.671875 L 1.011719 -2.019531 L 3.03125 0 L 11.015625 0 L 11.015625 -3.234375 L 4.246094 -3.234375 L 4.246094 -5.457031 L 12.027344 -5.457031 L 12.027344 -2.019531 L 14.046875 0 Z M 15.261719 0 "/></g></g></g><g fill="#00ffff" fill-opacity="1"><g transform="translate(58.342662, 16.002599)"><g><path d="M 12.332031 -3.4375 L 14.351562 -5.457031 L 14.351562 -12.128906 L 12.332031 -14.148438 L 0.101562 -14.148438 L 0.101562 -10.914062 L 11.117188 -10.914062 L 11.117188 -6.671875 L 4.851562 -6.671875 L 4.851562 -9.90625 L 1.617188 -9.90625 L 1.617188 0 L 4.851562 0 L 4.851562 -3.4375 L 8.226562 -3.4375 C 9.238281 -2.285156 10.226562 -1.132812 11.257812 0 L 15.363281 0 C 14.332031 -1.132812 13.339844 -2.285156 12.332031 -3.4375 Z M 12.332031 -3.4375 "/></g></g></g><g fill="#00ffff" fill-opacity="1"><g transform="translate(76.068929, 16.002599)"><g><path d="M 14.757812 0 L 14.757812 -3.234375 L 4.246094 -3.234375 L 4.246094 -10.914062 L 12.027344 -10.914062 L 12.027344 -8.488281 L 5.253906 -8.488281 L 5.253906 -5.253906 L 13.238281 -5.253906 L 15.261719 -7.277344 L 15.261719 -12.128906 L 13.238281 -14.148438 L 3.03125 -14.148438 L 1.011719 -12.128906 L 1.011719 -2.019531 L 3.03125 0 Z M 14.757812 0 "/></g></g></g><g fill="#7253ed" fill-opacity="1"><g transform="translate(21.171899, 16.002599)"><g><path d="M 12.332031 -3.4375 L 14.351562 -5.457031 L 14.351562 -12.128906 L 12.332031 -14.148438 L 0.101562 -14.148438 L 0.101562 -10.914062 L 11.117188 -10.914062 L 11.117188 -6.671875 L 4.851562 -6.671875 L 4.851562 -9.90625 L 1.617188 -9.90625 L 1.617188 0 L 4.851562 0 L 4.851562 -3.4375 L 8.226562 -3.4375 C 9.238281 -2.285156 10.226562 -1.132812 11.257812 0 L 15.363281 0 C 14.332031 -1.132812 13.339844 -2.285156 12.332031 -3.4375 Z M 12.332031 -3.4375 "/></g></g></g><g fill="#7253ed" fill-opacity="1"><g transform="translate(38.898167, 16.002599)"><g><path d="M 15.261719 0 L 15.261719 -12.128906 L 13.238281 -14.148438 L 1.515625 -14.148438 L 1.515625 -10.914062 L 12.027344 -10.914062 L 12.027344 -8.691406 L 3.03125 -8.691406 L 1.011719 -6.671875 L 1.011719 -2.019531 L 3.03125 0 L 11.015625 0 L 11.015625 -3.234375 L 4.246094 -3.234375 L 4.246094 -5.457031 L 12.027344 -5.457031 L 12.027344 -2.019531 L 14.046875 0 Z M 15.261719 0 "/></g></g></g><g fill="#7253ed" fill-opacity="1"><g transform="translate(57.331839, 16.002599)"><g><path d="M 12.332031 -3.4375 L 14.351562 -5.457031 L 14.351562 -12.128906 L 12.332031 -14.148438 L 0.101562 -14.148438 L 0.101562 -10.914062 L 11.117188 -10.914062 L 11.117188 -6.671875 L 4.851562 -6.671875 L 4.851562 -9.90625 L 1.617188 -9.90625 L 1.617188 0 L 4.851562 0 L 4.851562 -3.4375 L 8.226562 -3.4375 C 9.238281 -2.285156 10.226562 -1.132812 11.257812 0 L 15.363281 0 C 14.332031 -1.132812 13.339844 -2.285156 12.332031 -3.4375 Z M 12.332031 -3.4375 "/></g></g></g><g fill="#7253ed" fill-opacity="1"><g transform="translate(75.058107, 16.002599)"><g><path d="M 14.757812 0 L 14.757812 -3.234375 L 4.246094 -3.234375 L 4.246094 -10.914062 L 12.027344 -10.914062 L 12.027344 -8.488281 L 5.253906 -8.488281 L 5.253906 -5.253906 L 13.238281 -5.253906 L 15.261719 -7.277344 L 15.261719 -12.128906 L 13.238281 -14.148438 L 3.03125 -14.148438 L 1.011719 -12.128906 L 1.011719 -2.019531 L 3.03125 0 Z M 14.757812 0 "/></g></g></g><g fill="#ff00ff" fill-opacity="1"><g transform="translate(25.155937, 33.844703)"><g><path d="M 4.246094 0 L 4.246094 -14.148438 L 1.011719 -14.148438 L 1.011719 0 Z M 4.246094 0 "/></g></g></g><g fill="#ff00ff" fill-opacity="1"><g transform="translate(32.574169, 33.844703)"><g><path d="M 14.757812 0 L 14.757812 -3.234375 L 4.246094 -3.234375 L 4.246094 -10.914062 L 12.027344 -10.914062 L 12.027344 -8.894531 L 15.261719 -8.894531 L 15.261719 -12.128906 L 13.238281 -14.148438 L 3.03125 -14.148438 L 1.011719 -12.128906 L 1.011719 -2.019531 L 3.03125 0 Z M 14.757812 0 "/></g></g></g><g fill="#ff00ff" fill-opacity="1"><g transform="translate(51.007842, 33.844703)"><g><path d="M 13.746094 0 L 15.765625 -2.019531 L 15.765625 -12.128906 L 13.746094 -14.148438 L 3.03125 -14.148438 L 1.011719 -12.128906 L 1.011719 -2.019531 L 3.03125 0 Z M 12.53125 -3.234375 L 4.246094 -3.234375 L 4.246094 -10.914062 L 12.53125 -10.914062 Z M 12.53125 -3.234375 "/></g></g></g><g fill="#ff00ff" fill-opacity="1"><g transform="translate(69.946808, 33.844703)"><g><path d="M 14.351562 0 L 14.351562 -14.148438 L 11.117188 -14.148438 L 11.117188 -5.457031 L 4.851562 -14.148438 L 0.101562 -14.148438 L 0.101562 -10.914062 L 1.617188 -10.914062 L 1.617188 0 L 4.851562 0 L 4.851562 -8.671875 L 11.117188 0 Z M 14.351562 0 "/></g></g></g><g fill="#00ffff" fill-opacity="1"><g transform="translate(27.177581, 33.844703)"><g><path d="M 4.246094 0 L 4.246094 -14.148438 L 1.011719 -14.148438 L 1.011719 0 Z M 4.246094 0 "/></g></g></g><g fill="#00ffff" fill-opacity="1"><g transform="translate(34.595814, 33.844703)"><g><path d="M 14.757812 0 L 14.757812 -3.234375 L 4.246094 -3.234375 L 4.246094 -10.914062 L 12.027344 -10.914062 L 12.027344 -8.894531 L 15.261719 -8.894531 L 15.261719 -12.128906 L 13.238281 -14.148438 L 3.03125 -14.148438 L 1.011719 -12.128906 L 1.011719 -2.019531 L 3.03125 0 Z M 14.757812 0 "/></g></g></g><g fill="#00ffff" fill-opacity="1"><g transform="translate(53.029486, 33.844703)"><g><path d="M 13.746094 0 L 15.765625 -2.019531 L 15.765625 -12.128906 L 13.746094 -14.148438 L 3.03125 -14.148438 L 1.011719 -12.128906 L 1.011719 -2.019531 L 3.03125 0 Z M 12.53125 -3.234375 L 4.246094 -3.234375 L 4.246094 -10.914062 L 12.53125 -10.914062 Z M 12.53125 -3.234375 "/></g></g></g><g fill="#00ffff" fill-opacity="1"><g transform="translate(71.968453, 33.844703)"><g><path d="M 14.351562 0 L 14.351562 -14.148438 L 11.117188 -14.148438 L 11.117188 -5.457031 L 4.851562 -14.148438 L 0.101562 -14.148438 L 0.101562 -10.914062 L 1.617188 -10.914062 L 1.617188 0 L 4.851562 0 L 4.851562 -8.671875 L 11.117188 0 Z M 14.351562 0 "/></g></g></g><g fill="#7253ed" fill-opacity="1"><g transform="translate(26.166759, 33.844703)"><g><path d="M 4.246094 0 L 4.246094 -14.148438 L 1.011719 -14.148438 L 1.011719 0 Z M 4.246094 0 "/></g></g></g><g fill="#7253ed" fill-opacity="1"><g transform="translate(33.584991, 33.844703)"><g><path d="M 14.757812 0 L 14.757812 -3.234375 L 4.246094 -3.234375 L 4.246094 -10.914062 L 12.027344 -10.914062 L 12.027344 -8.894531 L 15.261719 -8.894531 L 15.261719 -12.128906 L 13.238281 -14.148438 L 3.03125 -14.148438 L 1.011719 -12.128906 L 1.011719 -2.019531 L 3.03125 0 Z M 14.757812 0 "/></g></g></g><g fill="#7253ed" fill-opacity="1"><g transform="translate(52.018664, 33.844703)"><g><path d="M 13.746094 0 L 15.765625 -2.019531 L 15.765625 -12.128906 L 13.746094 -14.148438 L 3.03125 -14.148438 L 1.011719 -12.128906 L 1.011719 -2.019531 L 3.03125 0 Z M 12.53125 -3.234375 L 4.246094 -3.234375 L 4.246094 -10.914062 L 12.53125 -10.914062 Z M 12.53125 -3.234375 "/></g></g></g><g fill="#7253ed" fill-opacity="1"><g transform="translate(70.95763, 33.844703)"><g><path d="M 14.351562 0 L 14.351562 -14.148438 L 11.117188 -14.148438 L 11.117188 -5.457031 L 4.851562 -14.148438 L 0.101562 -14.148438 L 0.101562 -10.914062 L 1.617188 -10.914062 L 1.617188 0 L 4.851562 0 L 4.851562 -8.671875 L 11.117188 0 Z M 14.351562 0 "/></g></g></g><g clip-path="url(#id1)"><path fill="#7253ed" d="M 58.449219 23.460938 C 55.636719 24.84375 55.890625 29.289062 58.855469 30.515625 C 63.40625 32.40625 66.574219 25.457031 62.078125 23.410156 C 60.542969 22.746094 59.929688 22.746094 58.449219 23.460938 Z M 61.617188 25.914062 C 62.535156 26.9375 62.535156 26.988281 61.464844 28.113281 L 60.339844 29.1875 L 59.214844 28.113281 C 58.140625 26.988281 58.140625 26.9375 59.0625 25.914062 C 60.238281 24.636719 60.441406 24.636719 61.617188 25.914062 Z M 61.617188 25.914062 " fill-opacity="1" fill-rule="nonzero"/></g><path fill="#7253ed" d="M 59.316406 26.222656 C 58.753906 26.835938 58.804688 27.140625 59.46875 27.859375 C 60.289062 28.625 60.390625 28.625 61.207031 27.859375 C 61.871094 27.140625 61.921875 26.835938 61.359375 26.222656 C 60.542969 25.199219 60.132812 25.199219 59.316406 26.222656 Z M 61.15625 26.476562 C 61.667969 27.347656 60.492188 28.316406 59.777344 27.601562 C 59.164062 26.988281 59.570312 25.914062 60.339844 25.914062 C 60.59375 25.914062 60.953125 26.171875 61.15625 26.476562 Z M 61.15625 26.476562 " fill-opacity="1" fill-rule="nonzero"/></svg>