<svg xmlns="http://www.w3.org/2000/svg" xmlns:xlink="http://www.w3.org/1999/xlink" width="150" zoomAndPan="magnify" viewBox="0 0 112.5 37.5" height="50" preserveAspectRatio="xMidYMid meet" xmlns:v="https://vecta.io/nano"><defs><clipPath id="A"><path d="M56.25 22.848h8.176V31H56.25zm0 0" clip-rule="nonzero"/></clipPath><path id="B" d="M32.493 12.566l2.02-2.02V3.874l-2.02-2.02h-12.23v3.234h11.016v4.242h-6.266V6.097h-3.234v9.906h3.234v-3.437h3.375l3.031 3.438h4.105l-3.031-3.437zm0 0"/><path id="C" d="M84.299 33.845V19.697h-3.234v8.691l-6.266-8.691h-4.75v3.234h1.516v10.914h3.234v-8.672l6.266 8.672zm0 0"/></defs><g fill="#f0f"><use xlink:href="#B"/><path d="M53.149 16.003V3.874l-2.023-2.02H39.403v3.234h10.512v2.223h-8.996l-2.02 2.02v4.652l2.02 2.02h7.984v-3.234h-6.77v-2.223h7.781v3.438l2.02 2.02zm0 0"/><use xlink:href="#B" x="36.16"/><path d="M88.805 16.003v-3.234H78.293v-7.68h7.781v2.426h-6.773v3.234h7.984l2.023-2.023V3.874l-2.023-2.02H77.078l-2.02 2.02v10.109l2.02 2.02zm0 0"/></g><path d="M34.515 12.566l2.02-2.02V3.874l-2.02-2.02h-12.23v3.234H33.3V9.33h-6.266V6.097H23.8v9.906h3.234v-3.437h3.375l3.031 3.438h4.105l-3.031-3.437zm20.656 3.437V3.874l-2.023-2.02H41.425v3.234h10.512v2.223H42.94l-2.02 2.02v4.652l2.02 2.02h7.984v-3.234h-6.77v-2.223h7.781v3.438l2.02 2.02zm15.504-3.437l2.02-2.02V3.874l-2.02-2.02h-12.23v3.234H69.46V9.33h-6.266V6.097H59.96v9.906h3.234v-3.437h3.375l3.031 3.438h4.105l-3.031-3.437zm20.152 3.437v-3.234H80.315v-7.68h7.781v2.426h-6.773v3.234h7.984l2.023-2.023V3.874l-2.023-2.02H79.1l-2.02 2.02v10.109l2.02 2.02zm0 0" fill="#0ff"/><g fill="#7253ed"><use xlink:href="#B" x="1.011"/><path d="M54.16 16.003V3.874l-2.023-2.02H40.414v3.234h10.512v2.223h-8.996l-2.02 2.02v4.652l2.02 2.02h7.984v-3.234h-6.77v-2.223h7.781v3.438l2.02 2.02zm0 0"/><use xlink:href="#B" x="37.171"/><path d="M89.816 16.003v-3.234H79.304v-7.68h7.781v2.426h-6.773v3.234h7.984l2.023-2.023V3.874l-2.023-2.02H78.089l-2.02 2.02v10.109l2.02 2.02zm0 0"/></g><g fill="#f0f"><path d="M29.402 33.845V19.697h-3.234v14.148zm17.93 0v-3.234H36.82v-7.68h7.781v2.02h3.234v-3.234l-2.023-2.02H35.605l-2.02 2.02v10.109l2.02 2.02zm17.422 0l2.02-2.02V21.716l-2.02-2.02H54.039l-2.02 2.02v10.109l2.02 2.02zm-1.215-3.234h-8.285v-7.68h8.285zm0 0"/><use xlink:href="#C"/></g><g fill="#0ff"><path d="M31.424 33.845V19.697H28.19v14.148zm17.93 0v-3.234H38.842v-7.68h7.781v2.02h3.234v-3.234l-2.023-2.02H37.627l-2.02 2.02v10.109l2.02 2.02zm17.421 0l2.02-2.02V21.716l-2.02-2.02H56.06l-2.02 2.02v10.109l2.02 2.02zm-1.215-3.234h-8.285v-7.68h8.285zm0 0"/><use xlink:href="#C" x="2.021"/></g><g fill="#7253ed"><path d="M30.413 33.845V19.697h-3.234v14.148zm17.93 0v-3.234H37.831v-7.68h7.781v2.02h3.234v-3.234l-2.023-2.02H36.616l-2.02 2.02v10.109l2.02 2.02zm17.422 0l2.02-2.02V21.716l-2.02-2.02H55.05l-2.02 2.02v10.109l2.02 2.02zm-1.215-3.234h-8.285v-7.68h8.285zm0 0"/><use xlink:href="#C" x="1.011"/></g><g clip-path="url(#A)"><path fill="#7253ed" d="M58.449 23.461c-2.812 1.383-2.559 5.828.406 7.055 4.551 1.891 7.719-5.059 3.223-7.105-1.535-.664-2.148-.664-3.629.051zm3.168 2.453c.918 1.023.918 1.074-.152 2.199l-1.125 1.074-1.125-1.074c-1.074-1.125-1.074-1.176-.152-2.199 1.176-1.277 1.379-1.277 2.555 0zm0 0"/></g><path fill="#7253ed" d="M59.316 26.223c-.562.613-.512.918.152 1.637.82.766.922.766 1.738 0 .664-.719.715-1.023.152-1.637-.816-1.023-1.227-1.023-2.043 0zm1.84.254c.512.871-.664 1.84-1.379 1.125-.613-.613-.207-1.687.563-1.687.254 0 .613.258.816.563zm0 0"/></svg>